<?xml version="1.0" encoding="utf-8"?>
<!-- Generator: Adobe Illustrator 19.0.0, SVG Export Plug-In . SVG Version: 6.00 Build 0)  -->
<svg version="1.1" id="Layer_1" xmlns="http://www.w3.org/2000/svg" xmlns:xlink="http://www.w3.org/1999/xlink" x="0px" y="0px"
	 viewBox="0 0 243.5 56.6" style="enable-background:new 0 0 243.5 56.6;" xml:space="preserve">
<style type="text/css">
	.st0{fill:#FFFFFF;}
</style>
<g>
	<path class="st0" d="M72.9,13.8L68.1,25h2.4l1-2.5h4.8l1,2.5h2.4L75,13.8H72.9z M72.4,20.4l1.6-3.8l1.6,3.8H72.4z"/>
	<polygon class="st0" points="81.9,16 87.9,16 81.7,23.2 81.7,25 90.9,25 90.9,22.9 84.7,22.9 90.9,15.7 90.9,13.9 81.9,13.9 	"/>
	<path class="st0" d="M97.8,13.7c-2.2,0-3.7,0.8-4.7,2.1l1.5,1.5c0.9-0.9,1.9-1.4,3.2-1.4c1.5,0,2.8,0.9,3.1,2.6h-8.3
		c0,0.3,0,0.4,0,0.7v0c0,3.1,1.7,6,5.4,6c3.2,0,5.5-2.6,5.5-5.7v0C103.5,16.1,101,13.7,97.8,13.7 M97.9,23.1c-1.7,0-2.7-1.1-2.9-2.7
		h5.9C100.6,22,99.5,23.1,97.9,23.1"/>
	<path class="st0" d="M114.8,17.6L114.8,17.6c0-1-0.3-1.9-0.9-2.5c-0.7-0.7-1.8-1.1-3.2-1.1h-5V25h2.3v-3.6h2l2.4,3.6h2.7l-2.8-4
		C113.9,20.5,114.8,19.4,114.8,17.6 M110.5,19.3H108V16h2.5c1.2,0,2,0.6,2,1.6v0C112.5,18.7,111.8,19.3,110.5,19.3"/>
	<path class="st0" d="M124.7,19.2c0.8-0.4,1.5-1.1,1.5-2.4v0c0-0.8-0.2-1.4-0.7-1.9c-0.6-0.6-1.6-1-2.9-1h-5.1V25h5.2
		c2.5,0,4.1-1,4.1-3v0C126.8,20.4,126,19.7,124.7,19.2 M119.7,16h2.5c1.1,0,1.7,0.4,1.7,1.2v0c0,0.9-0.7,1.2-1.8,1.2h-2.3V16z
		 M124.5,21.7c0,0.9-0.7,1.3-1.8,1.3h-3v-2.6h2.9C123.9,20.4,124.5,20.8,124.5,21.7L124.5,21.7z"/>
	<path class="st0" d="M133.2,13.8L128.4,25h2.4l1-2.5h4.8l1,2.5h2.4l-4.8-11.1H133.2z M132.7,20.4l1.6-3.8l1.6,3.8H132.7z"/>
	<polygon class="st0" points="144.1,18.4 141.4,13.9 138.6,13.9 142.9,20.6 142.9,25 145.3,25 145.3,20.6 149.6,13.9 146.9,13.9 	
		"/>
	<path class="st0" d="M155.6,23c-1.9,0-3.3-1.6-3.3-3.6v0c0-1.9,1.4-3.5,3.3-3.5c1.1,0,2,0.5,2.9,1.3l1.5-1.7c-1-1-2.3-1.7-4.4-1.7
		c-3.4,0-5.8,2.6-5.8,5.7v0c0,3.2,2.4,5.7,5.7,5.7c2.1,0,3.4-0.8,4.5-2l-1.5-1.5C157.7,22.5,156.9,23,155.6,23"/>
	<path class="st0" d="M166.2,13.8L161.4,25h2.4l1-2.5h4.8l1,2.5h2.4l-4.8-11.1H166.2z M165.7,20.4l1.6-3.8l1.5,3.8H165.7z"/>
	<polygon class="st0" points="182.5,13.9 182.5,20.9 177.2,13.9 175,13.9 175,25 177.3,25 177.3,17.8 182.8,25 184.8,25 184.8,13.9 
			"/>
	<path class="st0" d="M75.4,36.7c0.8-0.4,1.5-1.1,1.5-2.4v0c0-0.8-0.2-1.4-0.7-1.9c-0.6-0.6-1.6-1-2.9-1h-5.1v11.1h5.2
		c2.5,0,4.1-1,4.1-3v0C77.5,37.9,76.7,37.1,75.4,36.7 M70.4,33.4h2.5c1.1,0,1.7,0.4,1.7,1.2v0c0,0.9-0.7,1.2-1.8,1.2h-2.3V33.4z
		 M75.1,39.1c0,0.9-0.7,1.3-1.8,1.3h-3v-2.6h2.9C74.6,37.8,75.1,38.3,75.1,39.1L75.1,39.1z"/>
	<polygon class="st0" points="81.8,37.9 87.1,37.9 87.1,35.8 81.8,35.8 81.8,33.4 87.8,33.4 87.8,31.4 79.5,31.4 79.5,42.4 
		87.9,42.4 87.9,40.4 81.8,40.4 	"/>
	<polygon class="st0" points="95.3,35.9 92.5,31.4 89.8,31.4 94.1,38.1 94.1,42.4 96.4,42.4 96.4,38 100.7,31.4 98.1,31.4 	"/>
	<polygon class="st0" points="110.1,38.3 104.8,31.4 102.6,31.4 102.6,42.4 104.9,42.4 104.9,35.2 110.5,42.4 112.5,42.4 
		112.5,31.4 110.1,31.4 	"/>
	<path class="st0" d="M120.2,31.2c-2.2,0-3.7,0.8-4.7,2.1l1.5,1.5c0.9-0.9,1.9-1.4,3.2-1.4c1.5,0,2.8,0.9,3.1,2.6h-8.3
		c0,0.3,0,0.4,0,0.7v0c0,3.2,1.8,6,5.4,6c3.2,0,5.5-2.6,5.5-5.7v0C125.8,33.5,123.4,31.2,120.2,31.2 M120.3,40.5
		c-1.7,0-2.7-1.1-2.9-2.7h5.9C123,39.4,121.9,40.5,120.3,40.5"/>
	<polygon class="st0" points="130.6,31.4 128.3,31.4 128.3,42.4 136.2,42.4 136.2,40.3 130.6,40.3 	"/>
	<polygon class="st0" points="148.7,31.4 146,31.4 143.5,35 141.1,31.4 138.4,31.4 142.1,36.8 138.2,42.4 140.9,42.4 143.5,38.5 
		146.1,42.4 148.8,42.4 144.9,36.8 	"/>
	<path class="st0" d="M155.4,31.3l-4.8,11.2h2.4l1-2.5h4.8l1,2.5h2.5l-4.8-11.2H155.4z M154.9,37.8l1.6-3.8l1.6,3.8H154.9z"/>
	<polygon class="st0" points="166.7,31.4 164.3,31.4 164.3,42.4 172.3,42.4 172.3,40.3 166.7,40.3 	"/>
	<path class="st0" d="M184.9,36.9L184.9,36.9c0-3.2-2.4-5.7-5.9-5.7c-3.4,0-5.9,2.6-5.9,5.7v0c0,3.2,2.4,5.7,5.9,5.7
		c1.2,0,2.4-0.4,3.3-1l1.2,1.1l1.5-1.7l-1.2-1C184.5,39.2,184.9,38.1,184.9,36.9 M182.4,36.9c0,0.6-0.1,1.2-0.4,1.6l-1.8-1.7
		l-1.5,1.7l1.8,1.6c-0.5,0.2-1,0.3-1.6,0.3c-2,0-3.4-1.6-3.4-3.6v0c0-1.9,1.4-3.5,3.4-3.5C181,33.3,182.4,34.9,182.4,36.9
		L182.4,36.9z"/>
	<path class="st0" d="M199.3,36.7c0.8-0.4,1.5-1.1,1.5-2.4v0c0-0.8-0.2-1.4-0.7-1.9c-0.6-0.6-1.6-1-2.9-1H192v11.1h5.2
		c2.5,0,4.1-1,4.1-3v0C201.4,37.9,200.6,37.1,199.3,36.7 M194.3,33.4h2.5c1.1,0,1.7,0.4,1.7,1.2v0c0,0.9-0.7,1.2-1.8,1.2h-2.3V33.4z
		 M199.1,39.1c0,0.9-0.7,1.3-1.8,1.3h-3v-2.6h2.9C198.5,37.8,199.1,38.3,199.1,39.1L199.1,39.1z"/>
	<path class="st0" d="M207.4,31.3l-4.8,11.2h2.4l1-2.5h4.8l1,2.5h2.5l-4.8-11.2H207.4z M206.9,37.8l1.6-3.8l1.6,3.8H206.9z"/>
	<polygon class="st0" points="223.7,38.3 218.4,31.4 216.2,31.4 216.2,42.4 218.5,42.4 218.5,35.2 224,42.4 226,42.4 226,31.4 
		223.7,31.4 	"/>
	<polygon class="st0" points="238.7,31.4 235.8,31.4 231.2,36.3 231.2,31.4 228.9,31.4 228.9,42.4 231.2,42.4 231.2,39.1 
		232.6,37.7 236.1,42.4 238.9,42.4 234.1,36.1 	"/>
	<rect x="240.6" y="31.4" class="st0" width="2.3" height="11.1"/>
	<path class="st0" d="M25.8,10.5c-0.8,1.1-1.5,2.3-2,3.5c1.1,0.6,2.2,1.3,3.2,2.1l1.3,1.1l1.3-1.1c4-3.3,9.3-4.8,15.2-4.2
		c0.1,1.5,0.2,2.9,0.1,4.2c1.3,0.5,2.6,1.1,3.8,1.8c0.4-2.6,0.3-5.4-0.1-8.2l-0.2-1.4L46.8,8C39.8,7,33.3,8.4,28.2,12
		C27.5,11.4,26.6,10.9,25.8,10.5 M10.5,30.7c1.1,0.8,2.3,1.5,3.5,2c0.6-1.1,1.3-2.2,2.1-3.2l1.1-1.3L16,27c-3.3-4-4.8-9.4-4.2-15.2
		c1.4-0.1,2.9-0.2,4.2-0.1c0.5-1.3,1.1-2.6,1.8-3.8C15.3,7.6,12.5,7.6,9.7,8L8.3,8.3L8,9.7C7,16.6,8.4,23.2,12,28.2
		C11.4,29,10.9,29.8,10.5,30.7 M17.4,42.5c1.3-0.2,2.6-0.6,3.9-1c-0.4-1.2-0.6-2.5-0.8-3.7l-0.2-1.7L18.7,36
		c-5.2-0.5-10-3.2-13.7-7.7c0.9-1.1,1.9-2.1,3-3c-0.6-1.3-1-2.6-1.4-4c-2.1,1.6-4,3.6-5.7,5.9L0,28.2l0.9,1.2
		c4.1,5.7,9.7,9.3,15.9,10.3C16.9,40.7,17.1,41.6,17.4,42.5 M14,17.4c0.2,1.3,0.6,2.6,1,3.9c1.2-0.4,2.5-0.6,3.7-0.8l1.7-0.2
		l0.2-1.7c0.5-5.2,3.2-10,7.7-13.7c1.1,0.9,2.1,1.9,3,3c1.3-0.6,2.6-1,4-1.4c-1.6-2.1-3.6-4-5.9-5.7L28.2,0l-1.2,0.9
		c-5.7,4.1-9.3,9.7-10.3,15.9C15.8,16.9,14.9,17.1,14,17.4 M55.6,27.1c-4.1-5.7-9.7-9.3-15.9-10.3c-0.2-0.9-0.4-1.9-0.7-2.8
		c-1.3,0.2-2.6,0.6-3.9,1c0.4,1.2,0.6,2.5,0.8,3.7l0.2,1.7l1.7,0.2c5.2,0.5,10,3.2,13.7,7.7c-0.9,1.1-1.9,2.1-3,3
		c0.6,1.3,1,2.6,1.4,4c2.1-1.6,4-3.6,5.7-5.9l0.9-1.2L55.6,27.1z M46,25.8c-1.1-0.8-2.3-1.5-3.5-2C42,24.9,41.3,26,40.5,27l-1.1,1.3
		l1.1,1.3c3.3,4,4.8,9.4,4.2,15.2c-1.4,0.1-2.9,0.2-4.2,0.1c-0.5,1.3-1.1,2.6-1.8,3.8c2.6,0.4,5.4,0.3,8.2-0.1l1.4-0.2l0.2-1.4
		c1.1-6.9-0.3-13.4-3.9-18.5C45.1,27.5,45.6,26.6,46,25.8 M42.5,39.1c-0.2-1.3-0.6-2.6-1-3.9c-1.2,0.4-2.5,0.6-3.7,0.8l-1.7,0.2
		L36,37.8c-0.5,5.2-3.2,10-7.7,13.7c-1.1-0.9-2.1-1.9-3-3c-1.3,0.6-2.6,1-4,1.4c1.6,2.1,3.6,4,5.9,5.7l1.2,0.9l1.2-0.9
		c5.7-4.1,9.3-9.7,10.3-15.9C40.7,39.6,41.6,39.4,42.5,39.1 M30.7,46c0.8-1.1,1.5-2.3,2-3.5c-1.1-0.6-2.2-1.3-3.2-2.1l-1.3-1.1
		L27,40.5c-4,3.3-9.3,4.8-15.2,4.2c-0.1-1.4-0.2-2.9,0-4.2c-1.3-0.5-2.6-1.1-3.8-1.8C7.6,41.2,7.6,44,8,46.8l0.2,1.4l1.4,0.2
		c6.9,1.1,13.5-0.3,18.5-3.9C29,45.1,29.8,45.6,30.7,46"/>
</g>
</svg>
